<svg width="118" height="118" viewBox="0 0 118 118" fill="none" xmlns="http://www.w3.org/2000/svg">
<g filter="url(#filter0_f_681_2451)">
<circle cx="59" cy="59" r="24" transform="rotate(180 59 59)" fill="url(#paint0_radial_681_2451)"/>
</g>
<circle cx="59" cy="59" r="24" transform="rotate(180 59 59)" fill="url(#paint1_radial_681_2451)"/>
<g filter="url(#filter1_f_681_2451)">
<g clip-path="url(#paint2_angular_681_2451_clip_path)" data-figma-skip-parse="true"><g transform="matrix(0.0154257 -0.0183861 0.0183861 0.0154257 59 59)"><foreignObject x="-1467.53" y="-1467.53" width="2935.05" height="2935.05"><div xmlns="http://www.w3.org/1999/xhtml" style="background:conic-gradient(from 90deg,rgba(237, 171, 135, 1) 0deg,rgba(66, 71, 184, 1) 200.769deg,rgba(255, 228, 205, 1) 360deg);height:100%;width:100%;opacity:1"></div></foreignObject></g></g><circle cx="59" cy="59" r="24" transform="rotate(180 59 59)" data-figma-gradient-fill="{&#34;type&#34;:&#34;GRADIENT_ANGULAR&#34;,&#34;stops&#34;:[{&#34;color&#34;:{&#34;r&#34;:0.92941176891326904,&#34;g&#34;:0.67058825492858887,&#34;b&#34;:0.52941179275512695,&#34;a&#34;:1.0},&#34;position&#34;:0.0},{&#34;color&#34;:{&#34;r&#34;:0.26048344373703003,&#34;g&#34;:0.28084579110145569,&#34;b&#34;:0.72372668981552124,&#34;a&#34;:1.0},&#34;position&#34;:0.55769228935241699},{&#34;color&#34;:{&#34;r&#34;:1.0,&#34;g&#34;:0.89790570735931396,&#34;b&#34;:0.80602085590362549,&#34;a&#34;:1.0},&#34;position&#34;:1.0}],&#34;stopsVar&#34;:[{&#34;color&#34;:{&#34;r&#34;:0.92941176891326904,&#34;g&#34;:0.67058825492858887,&#34;b&#34;:0.52941179275512695,&#34;a&#34;:1.0},&#34;position&#34;:0.0},{&#34;color&#34;:{&#34;r&#34;:0.26048344373703003,&#34;g&#34;:0.28084579110145569,&#34;b&#34;:0.72372668981552124,&#34;a&#34;:1.0},&#34;position&#34;:0.55769228935241699},{&#34;color&#34;:{&#34;r&#34;:1.0,&#34;g&#34;:0.89790570735931396,&#34;b&#34;:0.80602085590362549,&#34;a&#34;:1.0},&#34;position&#34;:1.0}],&#34;transform&#34;:{&#34;m00&#34;:30.851470947265625,&#34;m01&#34;:36.772106170654297,&#34;m02&#34;:25.188203811645508,&#34;m10&#34;:-36.772106170654297,&#34;m11&#34;:30.851470947265625,&#34;m12&#34;:61.960311889648438},&#34;opacity&#34;:1.0,&#34;blendMode&#34;:&#34;NORMAL&#34;,&#34;visible&#34;:true}"/>
</g>
<circle cx="54.8366" cy="54.8367" r="4.16327" fill="url(#paint3_linear_681_2451)"/>
<circle cx="61.2041" cy="65.1224" r="2.20408" fill="url(#paint4_linear_681_2451)"/>
<circle cx="67.0815" cy="57.2857" r="1.71429" fill="url(#paint5_linear_681_2451)"/>
<circle cx="66.3468" cy="73.6938" r="0.979592" fill="url(#paint6_linear_681_2451)"/>
<path d="M53.8569 69.3773C53.3632 69.3772 52.9393 69.0844 52.7456 68.6635C52.4956 68.806 52.2063 68.8881 51.8979 68.8881C50.9512 68.8881 50.1841 68.12 50.1841 67.1732C50.1841 66.3142 50.8159 65.6053 51.6401 65.4808C52.1076 65.2844 52.8055 65.3408 53.4741 65.6752C54.2824 66.0794 54.7906 66.7612 54.7603 67.3275C54.9593 67.5452 55.0815 67.8344 55.0815 68.1527C55.0815 68.829 54.5332 69.3773 53.8569 69.3773Z" fill="url(#paint7_linear_681_2451)"/>
<path d="M45.8088 50.4958C45.6724 50.3103 45.8405 49.9429 46.1961 49.57C45.988 49.5783 45.8286 49.5281 45.7431 49.4121C45.4822 49.0571 46.0131 48.2235 46.9294 47.5501C47.7603 46.9394 48.621 46.6721 48.969 46.8921C49.288 46.9276 49.4257 47.2295 49.2865 47.718C49.1176 48.3101 48.5953 48.9881 48.0373 49.3791C47.8813 49.6074 47.6371 49.8586 47.331 50.0836C46.6769 50.5644 45.9956 50.7489 45.8088 50.4958Z" fill="url(#paint8_linear_681_2451)"/>
<defs>
<filter id="filter0_f_681_2451" x="23" y="23" width="72" height="72" filterUnits="userSpaceOnUse" color-interpolation-filters="sRGB">
<feFlood flood-opacity="0" result="BackgroundImageFix"/>
<feBlend mode="normal" in="SourceGraphic" in2="BackgroundImageFix" result="shape"/>
<feGaussianBlur stdDeviation="6" result="effect1_foregroundBlur_681_2451"/>
</filter>
<filter id="filter1_f_681_2451" x="0.599998" y="0.599998" width="116.8" height="116.8" filterUnits="userSpaceOnUse" color-interpolation-filters="sRGB">
<feFlood flood-opacity="0" result="BackgroundImageFix"/>
<feBlend mode="normal" in="SourceGraphic" in2="BackgroundImageFix" result="shape"/>
<feGaussianBlur stdDeviation="17.2" result="effect1_foregroundBlur_681_2451"/>
</filter>
<clipPath id="paint2_angular_681_2451_clip_path"><circle cx="59" cy="59" r="24" transform="rotate(180 59 59)"/></clipPath><radialGradient id="paint0_radial_681_2451" cx="0" cy="0" r="1" gradientUnits="userSpaceOnUse" gradientTransform="translate(59 59) rotate(90) scale(24)">
<stop stop-color="#FFDD01"/>
<stop offset="1" stop-color="#EBD6C3"/>
</radialGradient>
<radialGradient id="paint1_radial_681_2451" cx="0" cy="0" r="1" gradientUnits="userSpaceOnUse" gradientTransform="translate(59 59) rotate(90) scale(24)">
<stop stop-color="#363BA0"/>
<stop offset="1" stop-color="#F4CCA8"/>
</radialGradient>
<linearGradient id="paint3_linear_681_2451" x1="54.8366" y1="50.6735" x2="54.8366" y2="59" gradientUnits="userSpaceOnUse">
<stop stop-color="#796AB2"/>
<stop offset="1" stop-color="#9F93BF"/>
</linearGradient>
<linearGradient id="paint4_linear_681_2451" x1="61.2041" y1="62.9183" x2="61.2041" y2="67.3265" gradientUnits="userSpaceOnUse">
<stop stop-color="#8A72A5"/>
<stop offset="1" stop-color="#A287A9"/>
</linearGradient>
<linearGradient id="paint5_linear_681_2451" x1="67.0815" y1="55.5714" x2="67.0815" y2="59" gradientUnits="userSpaceOnUse">
<stop stop-color="#AC889F"/>
<stop offset="1" stop-color="#AF8A9E"/>
</linearGradient>
<linearGradient id="paint6_linear_681_2451" x1="66.3468" y1="72.7142" x2="66.3468" y2="74.6734" gradientUnits="userSpaceOnUse">
<stop stop-color="#7D6CA9"/>
<stop offset="1" stop-color="#BC9CA6"/>
</linearGradient>
<linearGradient id="paint7_linear_681_2451" x1="52.6328" y1="65.3678" x2="52.6328" y2="69.3773" gradientUnits="userSpaceOnUse">
<stop stop-color="#7069B6"/>
<stop offset="1" stop-color="#8A77A9"/>
</linearGradient>
<linearGradient id="paint8_linear_681_2451" x1="46.7366" y1="47.6918" x2="48.0865" y2="49.5284" gradientUnits="userSpaceOnUse">
<stop stop-color="#867FBD"/>
<stop offset="1" stop-color="#C2ABB5"/>
</linearGradient>
</defs>
</svg>
